# xmcd
#
# Track frame offsets: 
#        150
#        16952
#        34716
#        51776
#        69352
#        85275
#        101347
#        117848
#        135418
#        152086
#        168940
#        187683
#        205207
#        221279
#
# Disc length: 3169 seconds
#
# Revision: 0
# Processed by: cddbd v1.5.2PL0 Copyright (c) Steve Scherf et al.
# Submitted via: ExactAudioCopy v0.99pb4
#
DISCID=a90c5f0e
DTITLE=มนต์สิทธิ์  คำสร้อย - มนต์สิทธิ์ฮิตตลอด ชุดที่ 1
DYEAR=2008
DGENRE=Country
TTITLE0=ขายควายช่วยแม่
TTITLE1=กลัว
TTITLE2=ผู้ผิดหวัง
TTITLE3=สาวคลองจินดา
TTITLE4=ซึ้งแล้วคำสัญญา
TTITLE5=คนนอกสายตา
TTITLE6=โกสัมพี
TTITLE7=อิจฉาดี.เจ.
TTITLE8=ร้องเสียให้พอ
TTITLE9=สัญญารักน้ำอ้อย
TTITLE10=เหนือคำสาบาน
TTITLE11=วิวาห์น้ำตา
TTITLE12=ผ้าปูเตียง
TTITLE13=กำลังใจ
EXTD=
EXTT0=
EXTT1=
EXTT2=
EXTT3=
EXTT4=
EXTT5=
EXTT6=
EXTT7=
EXTT8=
EXTT9=
EXTT10=
EXTT11=
EXTT12=
EXTT13=
PLAYORDER=
